# xmcd CD database file
#
# Track frame offsets:
#	150
#	30559
#	49465
#	74033
#	82623
#	104322
#	123863
#	131818
#	165696
#	181735
#
# Disc length: 2666 seconds
#
# Revision: 0
# Processed by: cddbd v1.5.1PL2 Copyright (c) Steve Scherf et al.
# Submitted via: CDex 1.51
#
DISCID=820a680a
DTITLE=MOTHER OF SIN - Apathy
DYEAR=2005
DGENRE=Hard Rock
TTITLE0=Apathy
TTITLE1=Cover My Eyes
TTITLE2=Beyond Fear
TTITLE3=Introspective
TTITLE4=Buried A Life
TTITLE5=Mother Of Sin
TTITLE6=Insomnia
TTITLE7=Part Of Creation
TTITLE8=Into The Fire
TTITLE9=Hate
EXTD=YEAR: 2005
EXTT0=
EXTT1=
EXTT2=
EXTT3=
EXTT4=
EXTT5=
EXTT6=
EXTT7=
EXTT8=
EXTT9=
PLAYORDER=
